<?xml version="1.0" encoding="utf-8"?>
<!-- Generator: Adobe Illustrator 26.0.2, SVG Export Plug-In . SVG Version: 6.00 Build 0)  -->
<svg version="1.1" id="Layer_1" xmlns="http://www.w3.org/2000/svg" xmlns:xlink="http://www.w3.org/1999/xlink" x="0px" y="0px"
	 viewBox="0 0 32 22" style="enable-background:new 0 0 32 22;" xml:space="preserve">
<style type="text/css">
	.st0{fill:#AEAEAE;}
</style>
<path class="st0" d="M10.5,4c0.36,0,0.81,0.35,0.89,0.7l0.27,1.09C11.98,7.03,13.22,7,14.5,7h10C24.77,7,25,7.23,25,7.5v10
	c0,0.27-0.23,0.5-0.5,0.5h-17C7.23,18,7,17.77,7,17.5v-13C7,4.23,7.23,4,7.5,4H10.5 M10.5,3h-3C6.67,3,6,3.68,6,4.5v13
	C6,18.32,6.67,19,7.5,19h17c0.83,0,1.5-0.68,1.5-1.5v-10C26,6.68,25.33,6,24.5,6h-10c-0.83,0-1.77,0.16-1.86-0.46l-0.28-1.08
	C12.16,3.65,11.33,3,10.5,3L10.5,3z"/>
</svg>
