<?xml version="1.0" encoding="utf-8"?>
<!-- Generator: Adobe Illustrator 26.0.2, SVG Export Plug-In . SVG Version: 6.00 Build 0)  -->
<svg version="1.1" id="Layer_1" xmlns="http://www.w3.org/2000/svg" xmlns:xlink="http://www.w3.org/1999/xlink" x="0px" y="0px"
	 viewBox="0 0 32 22" style="enable-background:new 0 0 32 22;" xml:space="preserve">
<style type="text/css">
	.st0{fill:#AEAEAE;}
</style>
<path class="st0" d="M24.5,6h-10c-0.8,0-1.8,0.2-1.9-0.5l-0.3-1.1c-0.2-0.8-1-1.5-1.9-1.5h-3C6.7,3,6,3.7,6,4.5v13
	C6,18.3,6.7,19,7.5,19h17c0.8,0,1.5-0.7,1.5-1.5v-10C26,6.7,25.3,6,24.5,6z M7.5,4h3c0.4,0,0.8,0.3,0.9,0.7l0.3,1.1
	c0.1,0.3,0.2,0.5,0.4,0.7l-0.5,0.7H7V4.5C7,4.2,7.2,4,7.5,4z M25,17.5c0,0.3-0.2,0.5-0.5,0.5h-17C7.2,18,7,17.8,7,17.5V8.2h5.1
	L13,6.9C13.4,7,14,7,14.5,7h10C24.8,7,25,7.2,25,7.5V17.5z"/>
</svg>
